<?xml version="1.0" encoding="utf-8"?>
<svg version="1.1" xmlns:xlink="http://www.w3.org/1999/xlink" width="8px" height="8px" xmlns="http://www.w3.org/2000/svg">
  <g transform="matrix(1 0 0 1 -14 -156 )">
    <path d="M 18 156  C 20.24 156  22 157.76  22 160  C 22 162.24  20.24 164  18 164  C 15.76 164  14 162.24  14 160  C 14 157.76  15.76 156  18 156  Z " fill-rule="nonzero" fill="#4c8fff" stroke="none" />
    <path d="M 18 156.5  C 19.96 156.5  21.5 158.04  21.5 160  C 21.5 161.96  19.96 163.5  18 163.5  C 16.04 163.5  14.5 161.96  14.5 160  C 14.5 158.04  16.04 156.5  18 156.5  Z " stroke-width="1" stroke="#4c8fff" fill="none" />
  </g>
</svg>